<svg width="32" height="32" viewBox="0 0 32 32" fill="none" xmlns="http://www.w3.org/2000/svg">
<g id="cross-small 1">
<path id="Vector" d="M24 8C23.75 7.75004 23.4109 7.60962 23.0573 7.60962C22.7038 7.60962 22.3647 7.75004 22.1147 8L16 14.1147L9.88533 8C9.6353 7.75004 9.29622 7.60962 8.94267 7.60962C8.58912 7.60962 8.25004 7.75004 8 8C7.75004 8.25004 7.60962 8.58912 7.60962 8.94267C7.60962 9.29622 7.75004 9.6353 8 9.88533L14.1147 16L8 22.1147C7.75004 22.3647 7.60962 22.7038 7.60962 23.0573C7.60962 23.4109 7.75004 23.75 8 24C8.25004 24.25 8.58912 24.3904 8.94267 24.3904C9.29622 24.3904 9.6353 24.25 9.88533 24L16 17.8853L22.1147 24C22.3647 24.25 22.7038 24.3904 23.0573 24.3904C23.4109 24.3904 23.75 24.25 24 24C24.25 23.75 24.3904 23.4109 24.3904 23.0573C24.3904 22.7038 24.25 22.3647 24 22.1147L17.8853 16L24 9.88533C24.25 9.6353 24.3904 9.29622 24.3904 8.94267C24.3904 8.58912 24.25 8.25004 24 8Z" fill="#908EE6"/>
</g>
</svg>
