<svg width="32" height="32" viewBox="0 0 32 32" fill="none" xmlns="http://www.w3.org/2000/svg">
<g id="dribbble 1" clip-path="url(#clip0_5_241)">
<g id="Group">
<path id="Vector" fill-rule="evenodd" clip-rule="evenodd" d="M16 -2C6.0625 -2 -2 6.0625 -2 16C-2 25.9375 6.0625 34 16 34C25.918 34 34 25.9375 34 16C34 6.0625 25.918 -2 16 -2Z" fill="#1E1E1E"/>
<path id="Vector_2" fill-rule="evenodd" clip-rule="evenodd" d="M16 -2C6.0625 -2 -2 6.0625 -2 16C-2 25.9375 6.0625 34 16 34C25.918 34 34 25.9375 34 16C34 6.0625 25.918 -2 16 -2ZM27.889 6.2965C30.037 8.9125 31.3255 12.2515 31.3645 15.8635C30.8575 15.766 25.7815 14.731 20.665 15.3745C20.548 15.121 20.4505 14.848 20.3335 14.575C20.0215 13.8325 19.669 13.072 19.318 12.349C24.9805 10.045 27.5575 6.727 27.889 6.2965ZM18.127 10.0645C15.6085 5.4385 12.817 1.6495 12.388 1.0645C13.54 0.7915 14.7505 0.655 16 0.655C19.9045 0.655 23.4775 2.119 26.191 4.5205C25.918 4.9105 23.5945 8.0155 18.127 10.0645ZM9.46 2.0995C9.8695 2.6455 12.6025 6.4525 15.16 10.9825C7.975 12.895 1.63 12.8575 0.9475 12.8575C1.9435 8.0935 5.1655 4.1305 9.46 2.0995ZM0.616 15.55C1.279 15.5695 8.737 15.667 16.4095 13.3645C16.8595 14.2225 17.269 15.1015 17.659 15.9805C17.464 16.039 17.2495 16.0975 17.053 16.156C9.127 18.7135 4.9105 25.7035 4.558 26.2885C2.1175 23.575 0.6145 19.963 0.6145 16.0195L0.616 15.55ZM18.6355 18.538C18.6745 18.5185 18.694 18.5185 18.733 18.499C20.9005 24.1015 21.7795 28.807 22.0135 30.154C20.158 30.955 18.1285 31.384 16 31.384C12.4465 31.384 9.1675 30.1735 6.571 28.144C6.844 27.577 9.967 21.5635 18.6355 18.538ZM24.571 28.7485C24.415 27.811 23.5945 23.3215 21.5845 17.7955C26.407 17.035 30.6235 18.2845 31.15 18.46C30.4855 22.735 28.027 26.425 24.571 28.7485Z" fill="#E2E1FF"/>
</g>
</g>
<defs>
<clipPath id="clip0_5_241">
<rect width="32" height="32" fill="white"/>
</clipPath>
</defs>
</svg>
