<svg width="38" height="32" viewBox="0 0 38 32" fill="none" xmlns="http://www.w3.org/2000/svg">
<g id="Group">
<path id="Path_2525" d="M35.9381 31.007H36.2881L35.6175 29.9767C36.0276 29.9767 36.2449 29.712 36.248 29.3879C36.248 29.3754 36.248 29.3613 36.2465 29.3488C36.2465 28.9072 35.9844 28.6958 35.4464 28.6958H34.5769V31.007H34.9037V30.0002H35.3061L35.9381 31.007ZM35.2829 29.7387H34.9037V28.9573H35.3847C35.6329 28.9573 35.9166 28.998 35.9166 29.3284C35.9166 29.7073 35.6314 29.7387 35.2829 29.7387Z" fill="#1E1E1E"/>
<path id="Path_2520" d="M27.1337 27.0753H22.4979V19.7017C22.4979 17.9433 22.4671 15.6806 20.0868 15.6806C17.6725 15.6806 17.3025 17.5957 17.3025 19.5749V27.0753H12.6683V11.9116H17.1191V13.9832H17.1807C18.0888 12.408 19.7754 11.4669 21.5714 11.5343C26.2704 11.5343 27.1353 14.6738 27.1353 18.7559L27.1337 27.0753ZM7.43744 9.83844C5.95128 9.83844 4.74724 8.61551 4.74724 7.10604C4.74724 5.59656 5.95128 4.37363 7.43744 4.37363C8.9236 4.37363 10.1276 5.59656 10.1276 7.10604C10.1276 8.61551 8.9236 9.83844 7.43744 9.83844ZM9.75456 27.0753H5.11416V11.9116H9.75456V27.0753ZM29.4447 0.00177973H2.7847C1.52517 -0.0123129 0.492254 1.01332 0.476837 2.29262V29.482C0.492254 30.7629 1.52517 31.7885 2.7847 31.7744H29.4447C30.7073 31.7901 31.7448 30.7644 31.7618 29.482V2.29105C31.7433 1.00862 30.7057 -0.0170105 29.4447 0.000213809" fill="#1E1E1E"/>
<path id="Path_2526" d="M35.323 27.6672C34.1452 27.6782 33.1986 28.6584 33.2109 29.8547C33.2217 31.051 34.1868 32.0125 35.3646 31.9999C36.5425 31.989 37.4891 31.0088 37.4767 29.8124C37.4659 28.6318 36.5255 27.6782 35.3646 27.6672H35.323ZM35.3723 31.751C34.3394 31.7682 33.4391 30.9336 33.4221 29.8845C33.4052 28.8354 34.2284 27.971 35.2613 27.9538C36.2943 27.9366 37.1453 28.7727 37.1622 29.8218C37.1622 29.8328 37.1622 29.8422 37.1622 29.8532C37.1838 30.8788 36.3821 31.729 35.3723 31.751H35.3246H35.3723Z" fill="#1E1E1E"/>
</g>
</svg>
