<svg width="32" height="32" viewBox="0 0 32 32" fill="none" xmlns="http://www.w3.org/2000/svg">
<g id="instagram" clip-path="url(#clip0_5_235)">
<g id="Group">
<path id="Vector" d="M16 0C11.6547 0 11.1093 0.0186667 9.40267 0.096C6.92933 0.209333 4.47333 0.897333 2.68533 2.68533C0.890667 4.48 0.209333 6.93067 0.096 9.40267C0.0186667 11.1093 0 11.6547 0 16C0 20.3453 0.0186667 20.8907 0.096 22.5973C0.209333 25.068 0.9 27.5307 2.68533 29.3147C4.47867 31.108 6.93333 31.7907 9.40267 31.904C11.1093 31.9813 11.6547 32 16 32C20.3453 32 20.8907 31.9813 22.5973 31.904C25.0693 31.7907 27.528 31.1013 29.3147 29.3147C31.1107 27.5187 31.7907 25.0693 31.904 22.5973C31.9813 20.8907 32 20.3453 32 16C32 11.6547 31.9813 11.1093 31.904 9.40267C31.7907 6.92933 31.1013 4.472 29.3147 2.68533C27.524 0.894666 25.0627 0.208 22.5973 0.096C20.8907 0.0186667 20.3453 0 16 0Z" fill="#1E1E1E"/>
<path id="Vector_2" d="M16 7.78394C11.4627 7.78394 7.784 11.4626 7.784 15.9999C7.784 20.5373 11.4627 24.2159 16 24.2159C20.5373 24.2159 24.216 20.5373 24.216 15.9999C24.216 11.4626 20.5373 7.78394 16 7.78394ZM16 21.3333C13.0547 21.3333 10.6667 18.9453 10.6667 15.9999C10.6667 13.0546 13.0547 10.6666 16 10.6666C18.9453 10.6666 21.3333 13.0546 21.3333 15.9999C21.3333 18.9453 18.9453 21.3333 16 21.3333Z" fill="#E2E1FF"/>
<path id="Vector_3" d="M24.5413 9.37857C25.6017 9.37857 26.4613 8.51896 26.4613 7.45857C26.4613 6.39819 25.6017 5.53857 24.5413 5.53857C23.481 5.53857 22.6213 6.39819 22.6213 7.45857C22.6213 8.51896 23.481 9.37857 24.5413 9.37857Z" fill="#E2E1FF"/>
</g>
</g>
<defs>
<clipPath id="clip0_5_235">
<rect width="32" height="32" fill="white"/>
</clipPath>
</defs>
</svg>
