<svg width="87" height="22" viewBox="0 0 87 22" fill="none" xmlns="http://www.w3.org/2000/svg">
<path d="M6.666 17.176C5.55133 17.176 4.54667 16.9267 3.652 16.428C2.75733 15.9147 2.046 15.2033 1.518 14.294C1.00467 13.3847 0.748 12.314 0.748 11.082C0.748 9.83533 1.00467 8.75733 1.518 7.848C2.046 6.93867 2.75733 6.23467 3.652 5.736C4.54667 5.23733 5.55133 4.988 6.666 4.988C7.66333 4.988 8.536 5.208 9.284 5.648C10.032 6.088 10.6113 6.75533 11.022 7.65C11.4327 8.54467 11.638 9.68867 11.638 11.082C11.638 12.4607 11.44 13.6047 11.044 14.514C10.648 15.4087 10.076 16.076 9.328 16.516C8.59467 16.956 7.70733 17.176 6.666 17.176ZM7.26 14.36C7.81733 14.36 8.32333 14.228 8.778 13.964C9.23267 13.7 9.592 13.326 9.856 12.842C10.1347 12.3433 10.274 11.7567 10.274 11.082C10.274 10.3927 10.1347 9.806 9.856 9.322C9.592 8.838 9.23267 8.464 8.778 8.2C8.32333 7.936 7.81733 7.804 7.26 7.804C6.688 7.804 6.17467 7.936 5.72 8.2C5.26533 8.464 4.89867 8.838 4.62 9.322C4.356 9.806 4.224 10.3927 4.224 11.082C4.224 11.7567 4.356 12.3433 4.62 12.842C4.89867 13.326 5.26533 13.7 5.72 13.964C6.17467 14.228 6.688 14.36 7.26 14.36ZM10.362 17V14.58L10.428 11.06L10.208 7.562V0.675999H13.64V17H10.362ZM20.7984 17.176C19.7864 17.176 18.8111 17.0587 17.8724 16.824C16.9484 16.5747 16.2151 16.2667 15.6724 15.9L16.8164 13.436C17.3591 13.7733 17.9971 14.052 18.7304 14.272C19.4784 14.4773 20.2118 14.58 20.9304 14.58C21.7224 14.58 22.2798 14.4847 22.6024 14.294C22.9398 14.1033 23.1084 13.8393 23.1084 13.502C23.1084 13.2233 22.9764 13.018 22.7124 12.886C22.4631 12.7393 22.1258 12.6293 21.7004 12.556C21.2751 12.4827 20.8058 12.4093 20.2924 12.336C19.7938 12.2627 19.2878 12.1673 18.7744 12.05C18.2611 11.918 17.7918 11.7273 17.3664 11.478C16.9411 11.2287 16.5964 10.8913 16.3324 10.466C16.0831 10.0407 15.9584 9.49067 15.9584 8.816C15.9584 8.068 16.1711 7.408 16.5964 6.836C17.0364 6.264 17.6671 5.81667 18.4884 5.494C19.3098 5.15667 20.2924 4.988 21.4364 4.988C22.2431 4.988 23.0644 5.076 23.9004 5.252C24.7364 5.428 25.4331 5.68467 25.9904 6.022L24.8464 8.464C24.2744 8.12667 23.6951 7.89933 23.1084 7.782C22.5364 7.65 21.9791 7.584 21.4364 7.584C20.6738 7.584 20.1164 7.68667 19.7644 7.892C19.4124 8.09733 19.2364 8.36133 19.2364 8.684C19.2364 8.97733 19.3611 9.19733 19.6104 9.344C19.8744 9.49067 20.2191 9.608 20.6444 9.696C21.0698 9.784 21.5318 9.86467 22.0304 9.938C22.5438 9.99667 23.0571 10.092 23.5704 10.224C24.0838 10.356 24.5458 10.5467 24.9564 10.796C25.3818 11.0307 25.7264 11.3607 25.9904 11.786C26.2544 12.1967 26.3864 12.7393 26.3864 13.414C26.3864 14.1473 26.1664 14.8 25.7264 15.372C25.2864 15.9293 24.6484 16.3693 23.8124 16.692C22.9911 17.0147 21.9864 17.176 20.7984 17.176ZM34.0699 21.444C32.9553 21.444 31.8773 21.3047 30.8359 21.026C29.8093 20.762 28.9513 20.3587 28.2619 19.816L29.6259 17.352C30.1246 17.7627 30.7553 18.0853 31.5179 18.32C32.2953 18.5693 33.0579 18.694 33.8059 18.694C35.0233 18.694 35.9033 18.4227 36.4459 17.88C37.0033 17.3373 37.2819 16.5307 37.2819 15.46V13.678L37.5019 10.708L37.4579 7.716V5.164H40.7139V15.02C40.7139 17.22 40.1419 18.8407 38.9979 19.882C37.8539 20.9233 36.2113 21.444 34.0699 21.444ZM33.5419 16.428C32.4419 16.428 31.4446 16.1933 30.5499 15.724C29.6699 15.24 28.9586 14.5727 28.4159 13.722C27.8879 12.8567 27.6239 11.852 27.6239 10.708C27.6239 9.54933 27.8879 8.54467 28.4159 7.694C28.9586 6.82867 29.6699 6.16133 30.5499 5.692C31.4446 5.22267 32.4419 4.988 33.5419 4.988C34.5393 4.988 35.4193 5.19333 36.1819 5.604C36.9446 6 37.5386 6.62333 37.9639 7.474C38.3893 8.31 38.6019 9.388 38.6019 10.708C38.6019 12.0133 38.3893 13.0913 37.9639 13.942C37.5386 14.778 36.9446 15.4013 36.1819 15.812C35.4193 16.2227 34.5393 16.428 33.5419 16.428ZM34.2239 13.612C34.8253 13.612 35.3606 13.4947 35.8299 13.26C36.2993 13.0107 36.6659 12.666 36.9299 12.226C37.1939 11.786 37.3259 11.28 37.3259 10.708C37.3259 10.1213 37.1939 9.61533 36.9299 9.19C36.6659 8.75 36.2993 8.41267 35.8299 8.178C35.3606 7.92867 34.8253 7.804 34.2239 7.804C33.6226 7.804 33.0873 7.92867 32.6179 8.178C32.1486 8.41267 31.7746 8.75 31.4959 9.19C31.2319 9.61533 31.0999 10.1213 31.0999 10.708C31.0999 11.28 31.2319 11.786 31.4959 12.226C31.7746 12.666 32.1486 13.0107 32.6179 13.26C33.0873 13.4947 33.6226 13.612 34.2239 13.612ZM51.1022 4.988C52.0409 4.988 52.8769 5.17867 53.6102 5.56C54.3582 5.92667 54.9449 6.49867 55.3702 7.276C55.7956 8.03867 56.0082 9.02133 56.0082 10.224V17H52.5762V10.752C52.5762 9.79867 52.3636 9.09467 51.9382 8.64C51.5276 8.18533 50.9409 7.958 50.1782 7.958C49.6356 7.958 49.1442 8.07533 48.7042 8.31C48.2789 8.53 47.9416 8.87467 47.6922 9.344C47.4576 9.81333 47.3402 10.4147 47.3402 11.148V17H43.9082V5.164H47.1862V8.442L46.5702 7.452C46.9956 6.66 47.6042 6.05133 48.3962 5.626C49.1882 5.20067 50.0902 4.988 51.1022 4.988ZM58.2172 13.766V11.368L65.4772 1.6H69.2172L62.1112 11.368L60.3732 10.862H72.4952V13.766H58.2172ZM66.5112 17V13.766L66.6212 10.862V7.98H69.9872V17H66.5112ZM79.2811 17.176C78.2985 17.176 77.4185 16.9853 76.6411 16.604C75.8785 16.2227 75.2845 15.6433 74.8591 14.866C74.4338 14.074 74.2211 13.0693 74.2211 11.852V5.164H77.6531V11.346C77.6531 12.3287 77.8585 13.0547 78.2691 13.524C78.6945 13.9787 79.2885 14.206 80.0511 14.206C80.5791 14.206 81.0485 14.096 81.4591 13.876C81.8698 13.6413 82.1925 13.2893 82.4271 12.82C82.6618 12.336 82.7791 11.7347 82.7791 11.016V5.164H86.2111V17H82.9551V13.744L83.5491 14.69C83.1531 15.5113 82.5665 16.1347 81.7891 16.56C81.0265 16.9707 80.1905 17.176 79.2811 17.176Z" fill="#0500FF"/>
</svg>
