<?xml version="1.0" standalone="no"?>
<!DOCTYPE svg PUBLIC "-//W3C//DTD SVG 20010904//EN"
 "http://www.w3.org/TR/2001/REC-SVG-20010904/DTD/svg10.dtd">
<svg version="1.0" xmlns="http://www.w3.org/2000/svg"
 width="1152.000000pt" height="1152.000000pt" viewBox="0 0 1152.000000 1152.000000"
 preserveAspectRatio="xMidYMid meet">
<metadata>
Created by potrace 1.14, written by Peter Selinger 2001-2017
</metadata>
<g transform="translate(0.000000,1152.000000) scale(0.100000,-0.100000)"
fill="#000000" stroke="none">
<path d="M7818 11081 c0 -3 -2 -825 -4 -1826 -1 -1001 -3 -1821 -3 -1822 -1
-2 -43 39 -94 90 -51 50 -127 119 -168 151 -40 33 -76 63 -79 66 -14 17 -276
183 -353 224 -86 45 -306 145 -330 150 -7 2 -19 6 -27 9 -110 47 -455 139
-570 152 -14 2 -38 5 -55 8 -16 3 -49 8 -72 11 -24 3 -60 8 -80 11 -188 25
-691 25 -888 0 -42 -5 -122 -15 -165 -20 -14 -1 -45 -6 -70 -10 -25 -5 -52 -9
-60 -10 -17 -3 -163 -32 -200 -40 -14 -3 -36 -8 -50 -11 -14 -2 -32 -7 -40
-11 -8 -3 -22 -7 -30 -9 -8 -1 -40 -10 -70 -19 -30 -9 -62 -17 -70 -20 -18 -4
-109 -34 -130 -42 -8 -3 -19 -7 -25 -9 -15 -4 -148 -53 -170 -64 -11 -5 -40
-18 -65 -29 -25 -10 -71 -31 -103 -45 -31 -14 -60 -25 -64 -25 -3 1 -9 -3 -12
-8 -3 -4 -24 -17 -46 -28 -117 -59 -370 -210 -435 -262 -8 -6 -53 -40 -100
-75 -47 -35 -92 -70 -101 -78 -9 -8 -36 -31 -60 -50 -68 -53 -409 -401 -409
-417 0 -3 -11 -16 -25 -29 -14 -13 -25 -26 -25 -30 0 -3 -12 -21 -27 -39 -50
-58 -59 -71 -135 -181 -188 -277 -340 -583 -431 -869 -48 -152 -66 -210 -70
-235 -3 -14 -8 -32 -11 -40 -3 -8 -7 -26 -10 -40 -2 -14 -10 -47 -16 -75 -6
-27 -14 -59 -16 -70 -2 -11 -6 -31 -9 -45 -3 -14 -8 -40 -11 -59 -3 -18 -8
-43 -10 -55 -2 -11 -7 -41 -10 -66 -3 -25 -7 -52 -9 -60 -2 -8 -7 -44 -10 -80
-4 -36 -8 -78 -11 -95 -8 -65 -18 -235 -18 -337 -1 -60 -3 -108 -6 -108 -3 0
-5 -25 -5 -55 0 -30 3 -55 7 -55 4 0 3 -11 -2 -24 -5 -13 -7 -26 -5 -28 2 -2
7 -71 10 -153 4 -83 8 -163 9 -180 2 -16 7 -68 11 -115 4 -47 9 -92 9 -100 1
-9 5 -21 10 -28 4 -6 5 -15 2 -20 -2 -4 -1 -28 4 -52 4 -25 11 -63 14 -85 4
-33 24 -136 42 -220 2 -11 6 -29 8 -40 19 -95 95 -352 126 -430 13 -31 23 -59
26 -70 8 -31 94 -226 144 -325 58 -117 71 -140 133 -245 69 -118 281 -409 346
-476 9 -9 35 -38 57 -65 53 -63 214 -223 295 -294 35 -30 74 -65 88 -77 14
-13 55 -45 91 -73 36 -27 70 -53 75 -58 6 -4 33 -23 60 -42 28 -19 55 -38 60
-43 12 -10 162 -104 213 -134 40 -23 324 -167 332 -169 8 -1 39 -14 98 -40 29
-13 55 -24 58 -24 3 0 33 -11 67 -24 77 -29 313 -103 362 -112 6 -1 12 -3 15
-4 11 -4 39 -10 135 -30 128 -27 133 -28 175 -34 19 -3 67 -10 105 -16 39 -6
95 -13 125 -16 30 -3 71 -8 90 -10 188 -19 639 -19 785 0 17 2 59 7 95 11 36
3 79 9 95 12 17 3 41 7 55 8 25 4 50 8 121 20 20 3 106 24 190 46 157 40 163
42 189 51 8 3 38 13 65 23 95 32 250 99 350 150 124 65 229 126 233 137 2 4 7
8 12 8 9 0 101 61 139 93 15 12 42 33 61 47 83 63 257 230 333 319 l37 45 1
-60 c0 -32 0 -228 0 -436 0 -395 0 -394 44 -378 11 4 29 4 40 0 11 -4 29 -4
40 0 11 4 29 4 41 0 11 -5 27 -5 34 0 7 4 24 4 39 0 14 -4 35 -4 46 0 11 4 30
4 41 -1 12 -4 25 -5 28 -2 5 6 107 7 131 3 6 -1 15 -1 20 0 10 2 38 2 132 -1
23 0 47 2 52 5 5 4 12 2 16 -3 3 -6 15 -7 29 -1 12 4 29 4 36 0 8 -5 21 -5 29
-1 9 4 30 5 46 1 17 -3 45 -3 63 1 17 4 34 3 37 -2 3 -4 16 -4 29 1 12 4 29 4
36 0 8 -5 21 -5 29 -1 9 4 30 5 46 1 17 -3 45 -3 63 1 17 4 34 3 37 -2 3 -4
16 -4 29 1 12 4 29 4 36 0 8 -5 21 -5 29 -1 9 4 30 5 46 1 17 -3 45 -3 63 1
17 4 34 3 37 -2 3 -4 16 -4 29 1 12 4 28 5 35 0 7 -4 28 -4 46 0 18 4 39 4 46
-1 7 -4 20 -4 30 1 9 5 18 7 21 5 8 -8 74 -12 93 -5 11 4 29 4 41 0 11 -5 27
-5 34 0 7 4 24 4 39 0 14 -4 35 -4 46 0 11 4 30 4 42 -1 13 -5 25 -4 28 2 4 5
10 7 14 5 9 -6 65 -8 101 -4 l25 3 3 5221 2 5221 -1095 0 c-602 0 -1096 -3
-1097 -6z m-1768 -4560 c3 -1 32 -4 65 -6 66 -4 125 -11 168 -21 16 -3 38 -7
50 -9 23 -4 58 -12 67 -15 3 -1 8 -2 12 -1 11 1 236 -74 291 -98 26 -11 49
-19 51 -18 1 1 10 -4 18 -10 8 -7 44 -28 79 -46 35 -19 90 -51 123 -73 32 -21
66 -43 74 -49 9 -5 21 -14 28 -20 6 -5 31 -26 55 -45 60 -48 219 -202 219
-211 0 -5 13 -22 29 -38 36 -37 147 -197 188 -271 68 -123 81 -149 120 -240
34 -81 54 -139 55 -160 0 -3 4 -13 10 -23 15 -29 50 -169 52 -209 0 -10 3 -18
6 -18 3 0 6 -10 7 -22 2 -45 19 -173 23 -173 4 0 12 -179 13 -295 1 -147 -12
-375 -23 -400 -1 -3 -2 -8 -1 -12 0 -6 -11 -72 -24 -138 -3 -14 -7 -36 -10
-50 -2 -14 -11 -46 -19 -72 -7 -26 -11 -49 -8 -52 3 -4 0 -6 -7 -6 -7 0 -10
-4 -7 -8 8 -13 -105 -316 -123 -332 -4 -3 -15 -23 -26 -45 -11 -22 -26 -48
-34 -57 -8 -10 -11 -18 -8 -18 13 0 -133 -210 -205 -293 -73 -85 -268 -269
-268 -253 0 3 -11 -5 -24 -17 -33 -30 -48 -42 -66 -50 -8 -4 -35 -21 -60 -37
-25 -17 -57 -36 -72 -42 -16 -7 -28 -16 -28 -20 0 -4 -6 -8 -13 -8 -7 0 -37
-12 -67 -28 -102 -51 -214 -91 -365 -129 -48 -12 -165 -33 -230 -40 -121 -14
-499 -7 -580 11 -11 3 -56 12 -100 21 -44 9 -97 23 -117 31 -21 7 -38 11 -38
8 0 -3 -6 -2 -12 3 -7 4 -19 8 -27 9 -40 7 -364 154 -381 174 -3 3 -34 24 -70
48 -36 23 -75 50 -85 59 -11 10 -38 31 -60 47 -44 33 -245 231 -245 242 0 4
-8 14 -18 23 -57 52 -242 347 -242 387 0 8 -4 14 -10 14 -5 0 -10 6 -10 13 0
7 -9 32 -20 55 -11 22 -21 49 -23 59 -1 10 -5 23 -9 28 -6 10 -47 146 -53 174
-2 9 -8 34 -14 57 -13 48 -41 204 -46 254 -15 152 -19 229 -17 390 1 183 5
270 16 343 3 20 8 52 11 70 8 57 21 133 24 145 1 1 2 5 3 10 1 4 5 23 10 42 5
19 11 43 13 54 9 39 36 128 47 154 6 15 12 34 14 42 3 17 9 30 63 145 44 92
124 230 160 275 11 14 47 59 80 100 97 121 170 193 332 325 75 61 376 228 432
239 7 2 23 8 37 13 29 12 163 53 192 58 11 2 27 6 36 9 9 3 33 8 52 11 19 3
42 8 50 10 15 5 75 12 159 20 24 2 45 5 46 7 4 3 277 2 285 -1z"/>
</g>
</svg>
